<svg xmlns="http://www.w3.org/2000/svg" width="900" height="520" viewBox="0 0 640 360" role="img" aria-label="Automotive Parts">
  <defs><linearGradient id="bg" x1="0" y1="0" x2="1" y2="1"><stop offset="0" stop-color="#050505"/><stop offset="1" stop-color="#404040"/></linearGradient><radialGradient id="glow" cx="50%" cy="36%" r="52%"><stop offset="0" stop-color="#ffc400" stop-opacity=".28"/><stop offset="1" stop-color="#000" stop-opacity="0"/></radialGradient></defs>
  <rect width="640" height="360" fill="url(#bg)"/><rect width="640" height="360" fill="url(#glow)"/><g transform="translate(75 105)"><path d="M55 96 L105 38 H335 L412 96 H500 C522 96 538 113 538 136 V178 H38 V132 C38 112 51 96 55 96 Z" fill="#0b0b0b" stroke="#4e4e4e" stroke-width="8"/><path d="M140 50 H322 L370 96 H98 Z" fill="#222"/><circle cx="150" cy="182" r="42" fill="#050505" stroke="#5b5b5b" stroke-width="10"/><circle cx="420" cy="182" r="42" fill="#050505" stroke="#5b5b5b" stroke-width="10"/></g>
  <rect x="28" y="26" width="138" height="30" rx="15" fill="#ffc400"/><text x="48" y="47" font-family="Arial,Helvetica,sans-serif" font-size="15" font-weight="800" fill="#111">OZ MASTERBATCH</text>
  <text x="34" y="318" font-family="Arial,Helvetica,sans-serif" font-size="25" font-weight="800" fill="#fff">Automotive Parts</text><text x="34" y="342" font-family="Arial,Helvetica,sans-serif" font-size="15" fill="#d8d8d8">High gloss and heat resistance</text>
</svg>