<svg xmlns="http://www.w3.org/2000/svg" width="900" height="520" viewBox="0 0 640 360" role="img" aria-label="UV Resistant Black Masterbatch">
  <defs><linearGradient id="bg" x1="0" y1="0" x2="1" y2="1"><stop offset="0" stop-color="#071007"/><stop offset="1" stop-color="#253d21"/></linearGradient><radialGradient id="glow" cx="50%" cy="36%" r="52%"><stop offset="0" stop-color="#ffc400" stop-opacity=".28"/><stop offset="1" stop-color="#000" stop-opacity="0"/></radialGradient></defs>
  <rect width="640" height="360" fill="url(#bg)"/><rect width="640" height="360" fill="url(#glow)"/><path d="M0 220 C110 170 210 185 330 145 C430 112 515 128 640 82 L640 360 L0 360 Z" fill="#1b3b1b" opacity=".9"/><path d="M0 258 C130 204 265 210 410 160 C520 122 595 138 640 118 L640 360 L0 360 Z" fill="#080808" opacity=".92"/><g stroke="#4c4c4c" stroke-width="2" opacity=".55"><path d="M65 360 L265 156"/><path d="M178 360 L348 151"/><path d="M300 360 L462 139"/><path d="M430 360 L570 129"/></g><g fill="#79b55b"><circle cx="210" cy="165" r="10"/><path d="M210 165 C188 145 178 130 190 120 C215 135 222 148 210 165"/><circle cx="420" cy="142" r="9"/><path d="M420 142 C400 126 392 114 403 105 C423 118 432 129 420 142"/></g>
  <rect x="28" y="26" width="138" height="30" rx="15" fill="#ffc400"/><text x="48" y="47" font-family="Arial,Helvetica,sans-serif" font-size="15" font-weight="800" fill="#111">OZ MASTERBATCH</text>
  <text x="34" y="318" font-family="Arial,Helvetica,sans-serif" font-size="25" font-weight="800" fill="#fff">UV Resistant Black Masterbatch</text><text x="34" y="342" font-family="Arial,Helvetica,sans-serif" font-size="15" fill="#d8d8d8">Outdoor film and pipe weather protection</text>
</svg>